<?xml version="1.0" encoding="UTF-8"?>
<svg width="265px" height="253px" viewBox="0 0 265 253" version="1.1" xmlns="http://www.w3.org/2000/svg" xmlns:xlink="http://www.w3.org/1999/xlink">
    <!-- Generator: Sketch 47.1 (45422) - http://www.bohemiancoding.com/sketch -->
    <title>Slice</title>
    <desc>Created with Sketch.</desc>
    <defs></defs>
    <g id="Page-1" stroke="none" stroke-width="1" fill="none" fill-rule="evenodd">
        <g id="logo">
            <g id="squirrel-body" transform="translate(64.000000, 100.000000)" fill="#786354">
                <path d="M8.2578125,0.52734375 C1.1171875,8.63932292 -1.26302083,16.7578125 1.1171875,24.8828125 C4.6875,37.0703125 122.808594,41.15625 144.054687,24.8828125 C145.127604,14.0833333 140.640625,5.96484375 130.59375,0.52734375 L8.2578125,0.52734375 Z" id="body"></path>
            </g>
            <g id="below" transform="translate(0.000000, 127.000000)">
                <g id="backdrop" transform="translate(0.000000, 1.000000)">
                    <path d="M10,2 L255.210007,2 C249.484065,73.9114583 208.61573,110.083333 132.605003,110.515625 C56.5942764,110.947917 15.725942,74.7760417 10,2 Z" id="shadow" fill="#DEDEDD"></path>
                    <rect id="line" stroke="#B9B5B5" x="0.5" y="0.5" width="264" height="1"></rect>
                </g>
                <g id="bookmark" transform="translate(43.000000, 0.000000)">
                    <polygon id="Path" fill-opacity="0.174167799" fill="#000000" points="-1.42108547e-14 3 -1.42108547e-14 125.800003 35.0149994 96.4425475 70.0299988 125.800003 70.0299988 3"></polygon>
                    <polygon id="Path" fill="#28568F" points="-1.42108547e-14 0 -1.42108547e-14 122.800003 35.0149994 93.4425475 70.0299988 122.800003 70.0299988 5.36820601e-14"></polygon>
                </g>
                <g id="acorn" style="mix-blend-mode: luminosity;" transform="translate(78.840110, 61.714268) rotate(33.000000) translate(-78.840110, -61.714268) translate(61.840110, 34.939268)">
                    <path d="M17.9361002,0 C17.1365366,9.53414964e-17 16.8201352,1.28262745 13.8209793,2.3127298 C4.9845657,3.44909272 1.05459358,11.5917768 0.901148395,19.8638488 C0.798851605,25.3785634 0.85,29.2406138 1.05459358,31.45 L33.15,31.45 C33.15,27.004975 33.15,23.1429246 33.15,19.8638488 C33.15,14.945235 33.15,7.04132465 20.8515587,2.3127298 C17,1.20199444 18.7356637,0 17.9361002,0 Z" id="Path-14" fill="#98966E"></path>
                    <path d="M19.55,3.4 C21.091461,3.4 27.1494074,5.04818022 29.9981919,13.5120057 C31.0495137,16.6355145 31.59801,21.0279121 31.4153001,26.1205568 C31.5232464,27.5407474 28.9806522,28.1769263 23.7875175,28.0290936 C24.5795276,18.9041618 23.1670218,10.694464 19.55,3.4 Z" id="Path-17" fill-opacity="0.321303216" fill="#FFFFFF"></path>
                    <path d="M1.21805826,24.65 C11.9987108,27.920236 20.391568,28.8136119 32.9671237,24.65 C34.4187734,27.6624585 34.2677419,33.6261294 32.9671237,36.611381 C27.9169303,42.4012656 20.2752613,42.619871 17,42.4012656 C13.7247387,42.1826602 7.28428164,44.2461437 1.21805826,36.611381 C-0.288512031,33.6261294 -0.519427942,26.938407 1.21805826,24.65 Z" id="Path-15" fill="#8D6060"></path>
                    <path d="M15.9819365,38.3207 C15.5191715,37.3245572 16.9595373,47.1533099 12.0593893,49.0253979 C7.15924123,50.8974859 13.4295972,54.735811 13.9951732,53.1923443 C18.8868075,43.7470971 16.4447016,39.3168427 15.9819365,38.3207 Z" id="Path-16" fill="#8D6060"></path>
                    <path d="M2.34047987,31.45 C1.90077487,31.3964237 1.15103112,30.0602231 2.34047987,29.8275558 C3.1334457,29.6724442 3.76995241,29.75 4.25,30.0602231 C2.74044464,29.9051116 2.10393793,30.3683705 2.34047987,31.45 Z" id="Path-18" fill-opacity="0.227270154" fill="#000000"></path>
                    <path d="M4.67698658,35.7 C4.38384991,35.6464237 3.88402074,34.3102231 4.67698658,34.0775558 C5.20563047,33.9224442 5.62996827,34 5.95,34.3102231 C4.94362976,34.1551116 4.51929196,34.6183705 4.67698658,35.7 Z" id="Path-18" fill-opacity="0.227270154" fill="#000000"></path>
                    <path d="M5.52698658,28.9 C5.23384991,28.8732119 4.73402074,28.2051116 5.52698658,28.0887779 C6.05563047,28.0112221 6.47996827,28.05 6.8,28.2051116 C5.79362976,28.1275558 5.36929196,28.3591853 5.52698658,28.9 Z" id="Path-18" fill-opacity="0.227270154" fill="#000000"></path>
                    <path d="M2.12698658,34.85 C1.83384991,34.8232119 1.33402074,34.1551116 2.12698658,34.0387779 C2.65563047,33.9612221 3.07996827,34 3.4,34.1551116 C2.39362976,34.0775558 1.96929196,34.3091853 2.12698658,34.85 Z" id="Path-18" fill-opacity="0.227270154" fill="#000000"></path>
                    <path d="M7.22698658,32.3 C6.93384991,32.2464237 6.43402074,30.9102231 7.22698658,30.6775558 C7.75563047,30.5224442 8.17996827,30.6 8.5,30.9102231 C7.49362976,30.7551116 7.06929196,31.2183705 7.22698658,32.3 Z" id="Path-18" fill-opacity="0.227270154" fill="#000000" transform="translate(7.650000, 31.450000) rotate(10.000000) translate(-7.650000, -31.450000) "></path>
                </g>
            </g>
            <g id="squirrel-face" transform="translate(56.000000, 0.000000)">
                <g id="teeth" transform="translate(64.700012, 125.000000)">
                    <path d="M0.3203125,2.22851563 C0.3203125,10.7988281 0.3203125,15.9928385 0.3203125,17.8105469 C8.28515625,23.6445312 25.3652344,20.9433594 28.6601562,17.8105469 C28.6601562,17.8105469 28.6601562,12.6165365 28.6601562,2.22851562 L0.3203125,2.22851563 Z" fill="#FFFFFF"></path>
                    <path d="M14.0195313,19.2324219 C14.0195313,19.2324219 12.6196289,0.297363281 14.0195313,0.322265625 C15.4194336,0.347167969 14.0195313,19.2324219 14.0195313,19.2324219 Z" id="gap" fill-opacity="0.260529891" fill="#000000"></path>
                </g>
                <g id="profile">
                    <path d="M147.90297,47.1707881 C153.764114,56.9339742 156.730469,68.3286322 156.730469,80.5 C156.730469,103.057765 141.475654,117.55686 120.898216,121.170535 C119.085438,126.979804 114.534409,131.632268 107.245117,135.12793 C70.9761954,146.31868 80.5859375,119.9375 78.6777344,119.720703 C76.7695312,119.503906 88.3730469,147.475586 48.015625,133.305664 C40.9328826,129.536362 37.6530618,125.023845 36.6450609,120.219563 C16.793648,116.387481 3.1796875,102.646756 3.1796875,80.5 C3.1796875,68.514673 6.06591592,57.2799203 11.7635029,47.6144618 C11.7061463,47.566568 11.6486794,47.5183695 11.5911022,47.4698664 C-6.17681159,32.5021689 0.987143452,1.40405141 6.86209764,0.218658831 C10.2958063,-0.474162371 17.4450969,9.30582166 28.3099693,29.5586109 C40.9212814,20.449944 58.2063571,14.9949454 80,15 C101.527377,15.0049928 118.639373,20.3289276 131.190677,29.2362668 C142.782348,9.32030667 150.284199,-0.231008939 153.696231,0.582319981 C159.463476,1.95706307 165.469766,32.6301594 147.90297,47.1707881 Z" id="head" fill="#8B7461"></path>
                    <g id="hair" transform="translate(32.000000, 8.000000)" fill="#786354">
                        <path d="M0.41796875,18.7246094 C22.7695313,27.5 37.1464844,67.9023438 34.9804688,99.6953125 C48.2763672,105.455078 53.138891,108.581255 59.8046875,99.6953125 C62.1601562,60.5410156 70.2011719,30.671875 95.7207031,18.7246094 C95.8710938,17.6777344 74.2841797,6.87695312 46.8378906,6.87695312 C19.3916016,6.87695313 0.0478515625,16.6591797 0.41796875,18.7246094 Z" id="crown"></path>
                        <path d="M28,9.48616857 C36.3460286,8.39740775 41.140625,6.95638021 42.3837891,5.16308594 C44.2485352,2.47314453 43.3461914,2.55810547 44.4125977,1.43212891 C45.4790039,0.306152344 48.3583984,0.940917969 47.9775391,3.50439453 C47.7236328,5.21337891 46.535319,6.59841687 44.4125977,7.65950842 C46.7390951,7.73188041 48.2522786,6.89973958 48.9521484,5.16308594 C50.0019531,2.55810547 51.8564453,2.53613281 52.8305664,2.55810547 C53.8046875,2.58007812 55.1162109,4.88378906 52.2241211,7.14306641 C50.2960612,8.6492513 47.3367513,9.80105359 43.3461914,10.5984733 L28,9.48616857 Z" id="quiff"></path>
                    </g>
                </g>
                <g id="cheeks" transform="translate(33.000000, 109.000000)">
                    <path d="M87.9758301,12.1645508 C88.6608887,8.14778646 87.928928,4.40326606 85.7799479,0.930989583 C87.4265095,1.47764691 90.5070801,3.9699707 91.4934082,11.3625488 C91.5018717,11.4644368 90.3293457,11.7317708 87.9758301,12.1645508 Z" id="right-cheek" fill-opacity="0.1346524" fill="#322626"></path>
                    <path d="M2.39589437,11.2335612 C3.08095296,7.21679688 2.34899224,3.47227648 0.200012207,0 C1.84657378,0.546657331 4.92714437,3.03898112 5.91347249,10.4315592 C5.92193604,10.5334473 4.74940999,10.8007813 2.39589437,11.2335612 Z" id="left-cheek" fill-opacity="0.1346524" fill="#322626" transform="translate(3.056765, 5.616781) scale(-1, 1) translate(-3.056765, -5.616781) "></path>
                    <g id="freckles" transform="translate(15.000000, 9.000000)" fill="#786354">
                        <circle id="freckle" cx="1.5" cy="4.5" r="1.5"></circle>
                        <circle id="freckle" cx="9.5" cy="1.5" r="1.5"></circle>
                        <circle id="freckle" cx="8" cy="9" r="1"></circle>
                        <circle id="freckle" cx="63.5" cy="4.5" r="1.5"></circle>
                        <circle id="freckle" cx="55.5" cy="1.5" r="1.5"></circle>
                        <circle id="freckle" cx="56" cy="9" r="1"></circle>
                    </g>
                </g>
                <g id="right-eye" transform="translate(106.000000, 63.000000)">
                    <path d="M37.6162348,20.7993521 C37.2383527,24.6089463 29.1638958,29.8187405 15.3741425,25.3945789 C6.1809737,22.4451378 2.46701918,16.2015609 4.23227896,6.66384813 C1.85426194,6.41011655 0.443502287,4.75422383 0,1.69616997 C3.18959604,3.76976944 3.43533251,3.17285156 6.01579173,3.04523152 C8.59625095,2.91761147 2.54923304,11.9596275 11.1830459,19.0162919 C14.9552951,22.09946 17.2626477,23.2177973 23.9541016,24.2143197 C32.8456985,25.5384978 36.8921494,22.2846322 37.6162348,20.7993521 Z" id="right-eye-eyelash" fill="#635147" transform="translate(18.808117, 14.392318) scale(-1, 1) translate(-18.808117, -14.392318) "></path>
                    <path d="M0.310057391,21.8051829 C-1.61081791,16.2921597 5.41209726,2.80606594e-14 20.8605485,0 C36.3089997,-2.67161046e-14 33.894837,12.3733179 27.4351728,18.8695521 C20.9755086,25.3657863 2.23093269,27.3182062 0.310057391,21.8051829 Z" id="right-eye-white" fill="#FFFFFF"></path>
                    <path d="M23.1558988,1.9775795 C22.2114851,1.16285217 21.1393748,0.492277516 19.9736882,-2.38812379e-07 C12.0745353,0.307403484 6.49083606,4.92656417 3.29742983,9.96948493 C3.26201299,10.3460516 3.24390244,10.727656 3.24390244,11.1134934 C3.24390244,17.7725222 8.63832521,23.1707317 15.2926829,23.1707317 C21.9470406,23.1707317 27.3414634,17.7725222 27.3414634,11.1134934 C27.3414634,9.70081011 27.0986835,8.34487093 26.6525987,7.08517868 C26.0587988,7.84365136 25.1350594,8.33105377 24.097561,8.33105377 C22.3060031,8.33105377 20.8536585,6.87768968 20.8536585,5.08487422 C20.8536585,3.61977687 21.8235686,2.38137317 23.1558988,1.9775795 Z" id="right-eye-pupil" fill="#322626"></path>
                </g>
                <g id="left-eye" transform="translate(36.000000, 76.902439) scale(-1, 1) translate(-36.000000, -76.902439) translate(17.000000, 63.000000)">
                    <path d="M37.8597085,20.7993521 C37.4818264,24.6089463 29.4073695,29.8187405 15.6176162,25.3945789 C6.42444741,22.4451378 2.71049289,16.2015609 4.47575267,6.66384813 C2.09773565,6.41011655 0.686975991,4.75422383 0.243473704,1.69616997 C3.43306974,3.76976944 3.67880621,3.17285156 6.25926543,3.04523152 C8.83972466,2.91761147 2.79270675,11.9596275 11.4265196,19.0162919 C15.1987688,22.09946 17.5061214,23.2177973 24.1975753,24.2143197 C33.0891722,25.5384978 37.1356231,22.2846322 37.8597085,20.7993521 Z" id="left-eye-eyelash" fill="#635147" transform="translate(19.051591, 14.392318) scale(-1, 1) translate(-19.051591, -14.392318) "></path>
                    <path d="M0.890625,21.4999047 C-1.01493343,16.0640653 5.95198171,-2.9175616e-14 21.2772485,-5.68434189e-14 C36.6025152,-8.3185491e-14 34.2076029,12.2000882 27.7994474,18.6053735 C21.3912919,25.0106587 2.79618343,26.9357442 0.890625,21.4999047 Z" id="left-eye-white" fill="#FFFFFF"></path>
                    <path d="M23.6193134,1.99244594 C22.6748997,1.17829012 21.6027894,0.508185859 20.4371029,0.0162534248 C12.53795,0.323441512 6.95425069,4.93936197 3.76084446,9.97874526 C3.72542763,10.3550478 3.70731707,10.7363845 3.70731707,11.1219512 C3.70731707,17.7763089 9.10173984,23.1707317 15.7560976,23.1707317 C22.4104553,23.1707317 27.804878,17.7763089 27.804878,11.1219512 C27.804878,9.71025891 27.5620981,8.35527088 27.1160134,7.09646227 C26.5222134,7.85440291 25.5984741,8.34146341 24.5609756,8.34146341 C22.7694178,8.34146341 21.3170732,6.88911882 21.3170732,5.09756098 C21.3170732,3.63349135 22.2869832,2.39595636 23.6193134,1.99244594 Z" id="left-eye-pupil" fill="#322626"></path>
                </g>
                <g id="nose" transform="translate(63.000000, 94.000000)">
                    <path d="M0.790926027,12.6904829 C5.16201978,7.77774305 25.2420979,7.76194138 30.5799885,12.6904829 C35.9178792,17.6190244 20.2853766,25.9867974 15.8369794,25.9599346 C11.3885823,25.9330717 -3.58016772,17.6032227 0.790926027,12.6904829 Z" fill="#322626"></path>
                    <ellipse id="light" fill="#FFFFFF" opacity="0.37109375" cx="6" cy="12.5" rx="4" ry="1.5"></ellipse>
                    <path d="M0.122070312,2.75390625 C0.122070312,2.75390625 17.1523437,2.18359375 32.4638672,2.75390625 C15.5239763,-2.04296875 0.122070312,2.75390625 0.122070312,2.75390625 Z" id="nose-wrinkle" fill="#322626" opacity="0.0844655797"></path>
                </g>
                <g id="ears" transform="translate(2.000000, 12.000000)" fill="#D5C4CF">
                    <path d="M146.519716,29.3889826 C138.557382,32.9413163 148.543612,20.3535544 151.697203,13.2311629 C154.850793,6.10877146 153.637294,-2.05026644 155.165063,1.97443255 C156.692832,5.99913154 154.48205,25.836649 146.519716,29.3889826 Z" id="right-ear"></path>
                    <path d="M3.51971593,29.3889826 C-4.44261845,32.9413163 5.5436121,20.3535544 8.69720269,13.2311629 C11.8507933,6.10877146 10.6372936,-2.05026644 12.1650629,1.97443255 C13.6928321,5.99913154 11.4820503,25.836649 3.51971593,29.3889826 Z" id="left-ear" transform="translate(6.562415, 15.457910) scale(-1, 1) translate(-6.562415, -15.457910) "></path>
                </g>
            </g>
            <text id="text" font-family="CreteRound-Regular, Crete Round" font-size="24" font-weight="normal" line-spacing="25" fill="#322626">
                <tspan x="122" y="188">bookmark</tspan>
                <tspan x="122" y="213">bot</tspan>
            </text>
            <g id="squirrel-paws" transform="translate(54.000000, 119.000000)" fill="#8B7461">
                <path d="M141.604364,1.9559818 C137.450389,4.86453146 136.09729,9.11902477 137.545069,14.7194617 C139.716738,23.1201172 141.568962,23.1201172 142.737216,23.1201172 C143.652127,23.1201172 145.534201,20.5398227 145.336747,16.447059 C146.840486,14.7194617 147.147761,23.1201172 150.565263,23.1201172 C153.588645,23.1201172 153.764824,16.447059 154.187154,14.7194617 C155.723806,16.447059 156.838128,21.5026329 161.158233,21.5026329 C162.824322,20.3437743 162.769007,11.6201172 162.405034,9.23626477 C162.041061,6.85241235 160.521004,1.19374365 155.723806,0.339566547 C152.525675,-0.229884857 147.819194,0.308920226 141.604364,1.9559818 Z" id="right-paw"></path>
                <path d="M4.62056463,1.83586461 C0.466589043,4.74441427 -0.886509181,8.99890759 0.561269963,14.5993446 C2.73293868,23 4.585163,23 5.75341678,23 C6.66832764,23 8.5504011,20.4197055 8.35294738,16.3269418 C9.85668691,14.5993446 10.163962,23 13.5814638,23 C16.604846,23 16.7810244,16.3269418 17.2033548,14.5993446 C18.7400068,16.3269418 19.8543284,21.3825157 24.1744335,21.3825157 C25.8405227,20.2236571 25.7852076,11.5 25.4212346,9.11614758 C25.0572616,6.73229516 23.5372042,1.07362647 18.7400068,0.21944936 C15.5418752,-0.350002045 10.8353945,0.188803039 4.62056463,1.83586461 Z" id="left-paw" transform="translate(12.815000, 11.500000) scale(-1, 1) translate(-12.815000, -11.500000) "></path>
            </g>
        </g>
    </g>
</svg>